HIERARCHY
ROOT RootJoint
{
    OFFSET   0.000000   0.000000   0.000000
    CHANNELS 6 Xposition Yposition Zposition Xrotation Yrotation Zrotation
    JOINT pelvis_lowerback
    {
        OFFSET   0.000000   0.093605   0.000000
        CHANNELS 3 Xrotation Yrotation Zrotation
        JOINT lowerback_torso
        {
            OFFSET   0.000000   0.100000   0.000000
            CHANNELS 3 Xrotation Yrotation Zrotation
            JOINT torso_head
            {
                OFFSET   0.000000   0.282350   0.000000
                CHANNELS 3 Xrotation Yrotation Zrotation
                End Site
                {
                    OFFSET   0.000000   0.192650   0.000000
                }
            }
            JOINT rTorso_Clavicle
            {
                OFFSET  -0.001000   0.157500   0.000000
                CHANNELS 3 Xrotation Yrotation Zrotation
                JOINT rShoulder
                {
                    OFFSET  -0.117647   0.000000   0.000000
                    CHANNELS 3 Xrotation Yrotation Zrotation
                    JOINT rElbow
                    {
                        OFFSET  -0.245000   0.000000   0.000000
                        CHANNELS 3 Xrotation Yrotation Zrotation
                        JOINT rWrist
                        {
                            OFFSET  -0.240000   0.000000   0.000000
                            CHANNELS 3 Xrotation Yrotation Zrotation
                            End Site
                            {
                                OFFSET  -0.116353  -0.002500   0.000000
                            }
                        }
                    }
                }
            }
            JOINT lTorso_Clavicle
            {
                OFFSET   0.001000   0.157500   0.000000
                CHANNELS 3 Xrotation Yrotation Zrotation
                JOINT lShoulder
                {
                    OFFSET   0.117647   0.000000   0.000000
                    CHANNELS 3 Xrotation Yrotation Zrotation
                    JOINT lElbow
                    {
                        OFFSET   0.245000   0.000000   0.000000
                        CHANNELS 3 Xrotation Yrotation Zrotation
                        JOINT lWrist
                        {
                            OFFSET   0.240000   0.000000   0.000000
                            CHANNELS 3 Xrotation Yrotation Zrotation
                            End Site
                            {
                                OFFSET   0.116353  -0.002500   0.000000
                            }
                        }
                    }
                }
            }
        }
    }
    JOINT rHip
    {
        OFFSET  -0.100000  -0.051395   0.000000
        CHANNELS 3 Xrotation Yrotation Zrotation
        JOINT rKnee
        {
            OFFSET   0.000000  -0.410000   0.000000
            CHANNELS 3 Xrotation Yrotation Zrotation
            JOINT rAnkle
            {
                OFFSET   0.000000  -0.390000   0.000000
                CHANNELS 3 Xrotation Yrotation Zrotation
                JOINT rToeJoint
                {
                    OFFSET   0.000000  -0.050000   0.130000
                    CHANNELS 3 Xrotation Yrotation Zrotation
                    End Site
                    {
                        OFFSET  -0.010000   0.002000   0.060000
                    }
                }
            }
        }
    }
    JOINT lHip
    {
        OFFSET   0.100000  -0.051395   0.000000
        CHANNELS 3 Xrotation Yrotation Zrotation
        JOINT lKnee
        {
            OFFSET   0.000000  -0.410000   0.000000
            CHANNELS 3 Xrotation Yrotation Zrotation
            JOINT lAnkle
            {
                OFFSET   0.000000  -0.390000   0.000000
                CHANNELS 3 Xrotation Yrotation Zrotation
                JOINT lToeJoint
                {
                    OFFSET   0.000000  -0.050000   0.130000
                    CHANNELS 3 Xrotation Yrotation Zrotation
                    End Site
                    {
                        OFFSET   0.010000   0.002000   0.060000
                    }
                }
            }
        }
    }
}
MOTION
Frames: 12
Frame Time:   0.008333
 -2.418606   0.933652   3.507302  -3.454116   3.900889   0.964751   6.388961  -7.217481  -0.627449  -0.229823  -7.196024   1.290548   0.219369  -1.094100  -2.823711   7.222362 -11.175596  -4.428955  12.230380  -2.196457  52.901127   0.031405  54.651911  -0.038391   0.665163  -2.417444 -11.586829  -1.301579   2.438543   6.460552 -13.663384  -1.445375 -43.058733  -0.080090 -80.617561  -0.071983  -0.256614  -5.957133  15.050369 -49.565023  -5.697151 -10.437934  84.080046   0.009511   0.004843  16.215604  -2.583538   6.827994  -2.458203   0.000491  -0.005478  -1.975697  -6.098313   0.857816  33.104195   0.003044  -0.002472   7.809536  -8.261900   0.467379 -46.946636  -0.014436  -0.001316
 -2.420458   0.940765   3.505807  -3.138052   3.591663   0.711797   6.074900  -6.780903  -0.283191  -0.012209  -6.997399   1.353877   0.300685  -1.335743  -2.936468   7.373792 -10.985882  -4.455208  12.197544  -1.884595  53.062675   0.051606  56.677454  -0.060072   0.642388  -2.647001 -11.647833  -0.732959   2.605409   5.976376 -12.012754  -1.308472 -44.145622  -0.170784 -79.066894  -0.148171  -0.065860  -6.634515  14.935592 -48.075435  -5.923734  -9.787320  81.903763   0.006611   0.002576  16.300676  -2.949688   6.558757  -2.344231   0.000709  -0.004627  -3.062104  -5.502785   1.223405  33.488900   0.002423  -0.000773  11.173830  -8.452852   0.369219 -46.557615  -0.010548   0.000759
 -2.422314   0.947605   3.504648  -2.861872   3.210534   0.519427   5.717297  -6.304260  -0.014119   0.218434  -6.750436   1.407494   0.383504  -1.573325  -3.005496   7.498421 -10.814468  -4.489983  12.149356  -1.559609  53.246917   0.069162  58.647194  -0.077572   0.711468  -2.412409 -11.672488  -0.086328   2.850362   5.452720 -10.343354  -1.126520 -45.186636  -0.217656 -77.495044  -0.183711  -0.041729  -6.670633  14.624495 -46.319236  -6.068534  -9.132134  79.413625   0.004225   0.001214  16.354563  -3.299174   6.301702  -2.284400   0.000716  -0.003834  -4.277755  -4.887786   1.514988  34.131639   0.001931   0.001147  14.690630  -8.574816   0.284141 -45.801324  -0.006374   0.004455
 -2.424181   0.953968   3.503794  -2.603208   2.769531   0.391304   5.334310  -5.786587   0.191587   0.419712  -6.444456   1.425191   0.458519  -1.796258  -3.060903   7.608993 -10.650598  -4.521814  12.097547  -1.246480  53.427878   0.082960  60.499766  -0.091019   0.805779  -2.045333 -11.671788   0.572331   3.149648   4.921263  -8.720808  -0.934102 -46.173186  -0.230995 -75.992530  -0.189191  -0.090531  -6.432673  14.254505 -44.495950  -6.182706  -8.527399  76.971249   0.003883   0.001499  16.398249  -3.627488   6.061019  -2.230308   0.000662  -0.003205  -5.514247  -4.306468   1.751613  34.814314   0.001354   0.002319  18.259067  -8.697585   0.202152 -44.868183  -0.002184   0.007715
 -2.426076   0.959778   3.503169  -2.354903   2.292080   0.305397   4.942707  -5.239615   0.356342   0.588441  -6.092922   1.415881   0.524652  -2.003981  -3.111236   7.706294 -10.489403  -4.554335  12.041807  -0.948320  53.597823   0.093378  62.234384  -0.101198   0.905106  -1.647239 -11.664020   1.218264   3.479317   4.403396  -7.169063  -0.745414 -47.100592  -0.225442 -74.574494  -0.178741  -0.166041  -6.090562  13.899479 -42.677976  -6.283781  -7.971309  74.676700   0.004819   0.002838  16.437447  -3.934609   5.836823  -2.174293   0.000582  -0.002724  -6.742100  -3.767503   1.962997  35.474130   0.000721   0.002837  21.853471  -8.832176   0.123493 -43.913396   0.001486   0.009774
 -2.428011   0.964715   3.502693  -2.106723   1.806410   0.204580   4.548801  -4.678424   0.528202   0.729772  -5.711768   1.404954   0.583177  -2.197364  -3.157016   7.790658 -10.331461  -4.611657  11.981758  -0.667435  53.746096   0.100592  63.860533  -0.108674   1.006647  -1.232069 -11.664348   1.837634   3.822051   3.926409  -5.700499  -0.570286 -47.965236  -0.209879 -73.248045  -0.160962  -0.247405  -5.724914  13.582908 -40.912387  -6.386351  -7.429708  72.566410   0.005829   0.004420  16.474193  -4.221043   5.628613  -2.117463   0.000501  -0.002350  -7.922555  -3.279534   2.222384  36.027770   0.000109   0.002926  25.652997  -8.965534   0.046751 -39.565623   0.017094   0.022780
 -2.429952   0.969127   3.502326  -1.873749   1.316195   0.162008   4.168980  -4.112368   0.646032   0.848222  -5.313007   1.373234   0.635859  -2.377275  -3.201421   7.860846 -10.172007  -4.653207  11.915752  -0.400204  53.885581   0.105838  65.377953  -0.114000   1.106430  -0.827184 -11.675680   2.428967   4.167105   3.468757  -4.314629  -0.406930 -48.770007  -0.190493 -72.002048  -0.140838  -0.330476  -5.346032  13.313200 -39.192152  -6.460693  -6.963583  70.607958   0.007012   0.006256  16.508742  -4.489139   5.434220  -2.058112   0.000412  -0.002071  -9.094481  -2.825928   2.425868  36.630572  -0.000459   0.002842  29.143863  -9.114240  -0.016449 -39.546918   0.013625   0.018366
 -2.432024   0.972708   3.501213  -1.522379   1.080370   0.174405   3.763108  -3.563048   0.621882   0.965421  -5.093386   1.444678   0.553977  -2.547280  -3.230394   7.806105 -10.224908  -4.554352  11.521800  -0.268441  53.923824   0.112195  68.032219  -0.118150   1.108632  -1.266280 -11.516947   2.942314   4.341596   3.059815  -2.847836  -0.203769 -49.368708  -0.190024 -69.937116  -0.137023  -0.293619  -5.626949  13.131370 -37.079777  -6.189992  -6.504215  67.474968  -0.003275   0.000405  15.881197  -4.751119   5.288145  -1.950755   0.000688  -0.001699 -11.544778  -2.179633   2.562714  40.120063   0.004356   0.018134  27.958409  -8.894845  -0.401156 -35.843126   0.019803   0.045130
 -2.433989   0.975399   3.500222  -1.223281   0.791236   0.298947   3.382220  -2.944163   0.489187   1.074744  -4.812605   1.454598   0.482818  -2.707392  -3.246132   7.670454 -10.228214  -4.481048  11.066357  -0.095659  53.967171   0.118616  70.605530  -0.124687   1.199235  -1.214983 -11.472100   3.465251   4.534319   2.679677  -1.431589   0.019750 -49.901303  -0.179623 -67.927928  -0.124526  -0.342858  -5.501899  12.914956 -34.785988  -5.803637  -6.149318  64.182785  -0.011804  -0.004565  15.269113  -4.999998   5.142170  -1.918834   0.000652  -0.001374 -14.117100  -1.515020   2.580021  43.939384   0.011004   0.028856  26.838446  -8.682403  -0.761385 -32.635760   0.027978   0.059708
 -2.435905   0.977112   3.499423  -0.958603   0.456552   0.466716   3.013020  -2.268810   0.320604   1.163921  -4.456047   1.420006   0.418039  -2.857059  -3.263772   7.498484 -10.183478  -4.438675  10.592825   0.092593  53.996042   0.127492  73.035251  -0.135680   1.329111  -0.955511 -11.475139   3.981677   4.755396   2.324031  -0.078277   0.246317 -50.394899  -0.162682 -66.033614  -0.106304  -0.424460  -5.228878  12.712131 -32.455178  -5.416012  -5.865417  61.032181  -0.016261  -0.007529  14.693312  -5.232126   5.002566  -1.887917   0.000604  -0.001121 -16.689711  -0.881563   2.570709  47.783378   0.016822   0.033674  25.797195  -8.478254  -1.093240 -29.708584   0.034891   0.065494
 -2.437811   0.977825   3.498806  -0.726713   0.096666   0.647312   2.659959  -1.555059   0.141135   1.234922  -4.041373   1.360137   0.356724  -2.996001  -3.283319   7.305882 -10.104529  -4.423054  10.116417   0.285357  54.009607   0.140197  75.317720  -0.151399   1.475699  -0.605735 -11.508943   4.484828   4.997473   1.992952   1.208230   0.471197 -50.853761  -0.143379 -64.256390  -0.086366  -0.516730  -4.905651  12.547249 -30.139336  -5.051815  -5.629306  58.102657  -0.017714  -0.008978  14.155799  -5.447575   4.870468  -1.851808   0.000563  -0.000928 -19.227069  -0.290730   2.573528  51.603652   0.021173   0.034394  24.826133  -8.281906  -1.398910 -27.031258   0.039695   0.065678
 -2.439714   0.977544   3.498355  -0.528067  -0.273803   0.828788   2.325677  -0.820114  -0.039038   1.292685  -3.587318   1.286181   0.298430  -3.124725  -3.304071   7.102010 -10.002274  -4.427460   9.645938   0.477419  54.011559   0.157989  77.457574  -0.172232   1.629959  -0.211186 -11.565022   4.971934   5.253184   1.686146   2.427885   0.691660 -51.280492  -0.124285 -62.591372  -0.067196  -0.612857  -4.563057  12.424564 -27.862866  -4.713616  -5.429543  55.403451  -0.017354  -0.009446  13.655184  -5.647443   4.745780  -1.810849   0.000527  -0.000781 -21.709141   0.255291   2.599483  55.394147   0.024089   0.032543  23.919906  -8.093395  -1.680555 -24.582387   0.042456   0.062568
